<svg version="1" xmlns="http://www.w3.org/2000/svg" width="346.667" height="346.667" viewBox="0 0 260.000000 260.000000"><path d="M174.3 31.6c-1.8.9-4.2 3.2-5.4 5-2.2 3.6-2.3 7-2 71l.1 15.1 6.8-.2c7.6-.2 13.6 1.2 18.2 4.5l3.1 2.2-.3-45.6-.3-45.6-3.7-3.6c-2.9-3-4.5-3.7-8.5-4.1-3.2-.2-5.9.2-8 1.3z"/><path d="M72.9 45.8c-1.8.9-4.4 3.2-5.6 5.1L65 54.3v62.2c0 36.9.4 64.4 1 67.6 2.8 15 15.4 31.7 29.5 39.1 11.2 5.8 16.4 6.9 34 6.8 17.6 0 25-1.3 33.5-6 1.9-1 4.5-2.4 5.8-2.9 4.5-2.1 15.7-14.5 19.4-21.7 5.8-11 6.8-16.9 6.8-39.9 0-18.9-.2-20.2-2.3-23.9-1.3-2.3-3.8-4.8-6.2-6.1-3.7-1.9-5.5-2-27.5-2-25.4.1-27.4.5-31.2 5.6-4 5.3-3.9 11.9.3 17.7 3.1 4.3 6.5 5.2 20.5 5.2 9.5 0 13.5.4 14.2 1.3 2.3 2.7-.3 3.7-9.9 3.8-17.6.1-24.4 6.2-23.8 21.9.2 4.4-.2 6.4-1.1 7-2.7 1.7-4-1-4-7.9 0-8.8 1.3-12.9 5.5-17.8 3.3-3.9 3.4-4.2 1.5-4.8-1.1-.4-3.3-1.8-4.8-3.2-2.2-2-3.2-2.3-5.7-1.7-1.6.5-5.5.8-8.6.9-7.3 0-13.2-3.8-16.4-10.8-2.2-4.7-2.3-5.7-2.3-41 0-56.4.4-50.1-3.9-54.7-4.6-4.8-10.8-6-16.4-3.2z"/><path d="M110.3 79c-4.8 1.1-8.3 3.7-9.9 7.5-2 4.9-2 52.4 0 56.3 3.1 6.1 9.9 9 16.7 7.2 3.6-1 3.6-1.1 3.2-5.3-.7-5.7 1.1-11.6 4.6-15.4l2.9-3.2-.2-18.8c-.1-17.9-.2-19-2.4-22.1-3.6-5-9.3-7.4-14.9-6.2zM141.5 79.9c-8.1 3.7-9.1 6.9-9 28.1 0 10.9.3 14.5 1.3 14.4.6-.1 7.1-.2 14.2-.3l13-.1v-16.8c0-14.8-.2-17.1-2-19.9-3.5-5.9-11.3-8.2-17.5-5.4z"/></svg>